<svg width="28" height="25" viewBox="0 0 28 25" fill="none" xmlns="http://www.w3.org/2000/svg">
<path d="M13 6.33046C13 3.49784 15.3125 1.14162 18.0625 1.18025C19.0256 1.1917 19.9649 1.48941 20.7676 2.0376C21.5704 2.58578 22.2023 3.36111 22.5875 4.27038H27L22.9625 8.42917C22.7019 12.6067 20.9066 16.5253 17.9415 19.3881C14.9764 22.251 11.0641 23.8433 7 23.8412C3 23.8412 2 22.2961 2 22.2961C2 22.2961 6 20.7511 8 17.6609C8 17.6609 3.75509e-06 13.5408 2 2.21029C2 2.21029 7 7.3605 13 8.39055V6.33046Z" stroke="black" stroke-width="2" stroke-linecap="round" stroke-linejoin="round"/>
</svg>
